<?xml version="1.0" standalone="no"?>
<!DOCTYPE svg PUBLIC "-//W3C//DTD SVG 1.1//EN" "http://www.w3.org/Graphics/SVG/1.1/DTD/svg11.dtd" >
<svg xmlns="http://www.w3.org/2000/svg">
<metadata>Generated by IcoMoon</metadata>
<defs>
<font id="icomoon" horiz-adv-x="1024">
<font-face units-per-em="1024" ascent="960" descent="-64" />
<missing-glyph horiz-adv-x="1024" />
<glyph unicode="&#x20;" horiz-adv-x="512" d="" />
<glyph unicode="&#xe900;" glyph-name="bike" d="M818.225 559.275c-22.701 0-44.482-3.793-64.908-10.619l-72.276 168.608h96.603c23.081 0 41.881-18.8 41.881-41.881 0-8.669-5.581-16.146-13.924-18.638l-27.252-8.181 9.048-30.070 27.252 8.181c21.672 6.502 36.246 26.115 36.246 48.762 0 40.364-32.833 73.251-73.251 73.251h-144.227l44.969-104.946h-321.991l-34.675 57.864h47.624v31.37h-157.013v-31.37h72.764l41.719-69.513-46.432-86.959c-23.135 9.048-48.274 14.195-74.552 14.195-113.507-0.054-205.829-92.377-205.829-205.829s92.323-205.775 205.775-205.775c105.597 0 192.772 79.915 204.421 182.478h31.912c9.156-28.444 35.813-49.087 67.291-49.087 38.955 0 70.651 31.695 70.651 70.651 0 14.141-4.226 27.361-11.486 38.414l121.2 227.014 34.621-80.728c-66.37-34.188-111.99-103.267-111.99-182.966 0-113.453 92.323-205.775 205.829-205.775 113.453 0 205.775 92.323 205.775 205.775 0 113.507-92.323 205.775-205.775 205.775zM283.036 484.452c42.748-25.302 72.005-70.813 74.606-123.368h-99.528c-2.546 14.358-10.782 26.765-22.43 34.729l47.353 88.638zM227.664 351.766c0-12.082-9.807-21.889-21.889-21.889-12.028 0-21.834 9.807-21.834 21.889 0 12.028 9.807 21.834 21.834 21.834 12.082 0 21.889-9.807 21.889-21.834zM205.775 201.254c-83.925 0-152.191 68.321-152.191 152.246s68.267 152.246 152.191 152.246c17.229 0 33.7-3.034 49.141-8.29l-49.358-92.431c-29.257-0.163-53.042-23.948-53.042-53.259 0-29.366 23.893-53.259 53.259-53.259 21.726 0 40.364 13.057 48.654 31.695h101.641c-11.324-72.872-74.281-128.948-150.295-128.948zM439.399 361.085h-28.174c-2.709 72.98-43.398 136.262-102.942 170.667l37.059 69.459 117.733-196.185c-12.678-11.053-21.347-26.494-23.677-43.94zM509.399 312.485c-21.672 0-39.28 17.608-39.28 39.28 0 21.618 17.608 39.226 39.28 39.226 21.618 0 39.226-17.608 39.226-39.226 0-21.672-17.608-39.28-39.226-39.28zM545.429 412.447c-10.565 6.285-22.864 9.969-36.030 9.969-6.447 0-12.678-0.921-18.638-2.546l-115.782 192.989h277.455l-107.005-200.411zM818.225 201.254c-83.979 0-152.246 68.321-152.246 152.246 0 57.647 32.183 107.872 79.536 133.716l40.093-93.623c-12.461-9.752-20.697-24.76-20.697-41.827 0-29.366 23.893-53.259 53.313-53.259 29.366 0 53.259 23.893 53.259 53.259s-23.893 53.259-53.259 53.259c-1.138 0-2.113-0.271-3.197-0.325l-40.527 94.544c13.87 4.172 28.499 6.502 43.723 6.502 83.925 0 152.191-68.321 152.191-152.246s-68.267-152.246-152.191-152.246zM818.225 373.6c12.028 0 21.834-9.807 21.834-21.834 0-12.082-9.807-21.889-21.834-21.889-12.082 0-21.889 9.807-21.889 21.889 0 12.028 9.807 21.834 21.889 21.834zM546.025 261.881h-73.251c-8.723 0-15.712-6.989-15.712-15.658s6.989-15.712 15.712-15.712h73.251c8.669 0 15.712 7.043 15.712 15.712s-7.043 15.658-15.712 15.658z" />
<glyph unicode="&#xe901;" glyph-name="car" d="M402.419 861.821c80.283 11.454 146.579 11.032 220.001 0 50.197-10.715 101.027-19.16 150.432-32.99 36.526-10.293 62.97-35.365 76.008-73.685 20.744-60.542 42.491-120.715 65.398-180.466 3.906-9.976 16.521-24.703 23.594-23.911 48.138 5.489 70.782-21.588 85.509-61.598 3.484-12.246 1.531-24.544 0-32.62-20.11-5.648-40.115-11.19-58.537-16.31 2.586-21.113 7.284-42.491 7.39-63.92 0.792-97.596 1.372-195.245-0.528-292.841-0.369-17.418-10.293-44.549-17.26-48.93-6.545-11.401-152.596-10.821-163.945-2.956-37.898 24.914-14.568 66.718-26.761 100.658h-496.057c-9.607-35.84-15.36-96.118-26.919-100.658-25.283-9.818-160.619-10.187-168.167 0-10.293 7.337-17.207 36.948-18.58 55.95-2.798 41.118-1.214 82.553-0.792 123.829 0.792 76.694 1.953 153.388 2.903 230.557-14.199 3.8-34.467 9.237-54.683 14.621-1.108 7.39-2.586 16.31 0 26.128 14.093 42.279 34.626 74.899 87.303 68.090 6.387-0.792 18.105 12.932 21.588 22.169 17.999 47.716 37.318 95.327 50.197 144.626 21.536 82.764 80.653 116.070 156.133 130.744 28.397 5.489 57.217 9.131 85.773 13.513v0zM175.874 534.881c228.024-47.716 446.546-48.877 670.769 0-18.844 58.695-37.74 110.845-51.939 164.156-12.298 45.816-41.593 68.354-85.192 70.307-106.358 4.856-212.664 8.709-319.022 9.501-35.048 0.264-70.571-8.076-104.933-16.416-14.199-3.431-32.831-14.357-37.687-26.603-25.336-64.132-46.977-129.847-71.996-200.946v0zM219.631 285.375c0.106 1.267-0.053-1.214 0 0 18.263 0 37.423 0.686 54.789 4.803 12.615 2.956 28.556 13.301 32.567 24.228 2.798 7.812-9.29 27.711-19.319 32.409-41.646 19.583-84.453 37.265-128.105 51.78-21.747 7.231-45.974 5.859-52.994-25.494-10.187-45.921-0.633-71.468 33.253-78.594 26.128-5.489 53.153-6.281 79.808-9.131v0zM810.487 285.533c23.541 2.85 52.783 3.906 80.706 10.504 38.162 8.92 30.086 41.488 29.242 69.146-0.792 23.647-15.254 41.382-36.315 34.731-52.625-16.468-104.827-35.945-154.391-60.278-22.75-11.19-14.568-42.015 11.296-47.769 20.744-4.539 42.543-4.064 69.463-6.334v0z" />
<glyph unicode="&#xe902;" glyph-name="clock" d="M512 960c-282.21 0-512-229.79-512-512s229.79-512 512-512c282.21 0 512 229.79 512 512s-229.79 512-512 512zM512 864c230.324 0 416-185.676 416-416s-185.676-416-416-416c-230.324 0-416 185.676-416 416s185.676 416 416 416zM512 800c-26.514 0-48-21.486-48-48v-304c0-13.257 5.333-25.295 14.019-33.981l192.457-192.533c18.743-18.743 49.295-18.743 68.038 0s18.743 49.295 0 68.038l-178.514 178.438v284.038c0 26.514-21.486 48-48 48z" />
<glyph unicode="&#xe903;" glyph-name="document" d="M882.259 758.37v67.194h-67.194v67.243h-67.243v67.194h-672.232v-822.37h67.194v-67.194h67.243v-67.243h67.194v-67.194h672.232v822.37h-67.194zM110.26 172.3v753.030h602.892v-32.524h-570.368v-720.506h-32.524zM177.454 105.106v753.030h602.892v-32.573h-570.319v-720.457h-32.573zM244.697 37.864v753.030h602.892v-32.573h-570.368v-720.457h-32.524zM914.832-29.33h-602.941v753.030h602.941v-753.030zM364.895 680.399h496.884v-34.67h-496.884v34.67zM364.895 330.63h167.643v-34.67h-167.643v34.67zM364.895 260.657h496.884v-34.67h-496.884v34.67zM364.895 610.475h496.884v-34.67h-496.884v34.67zM364.895 540.501h496.884v-34.67h-496.884v34.67zM364.895 470.528h248.442v-34.67h-248.442v34.67zM364.895 190.732h496.884v-34.67h-496.884v34.67zM364.895 120.759h496.884v-34.67h-496.884v34.67zM364.895 50.786h248.442v-34.67h-248.442v34.67z" />
<glyph unicode="&#xe904;" glyph-name="facebook" d="M714.667 576h-138.667v85.333c0 23.564 19.103 42.667 42.667 42.667v0h85.333v128h-106.667c-94.257 0-170.667-76.41-170.667-170.667v0-85.333h-85.333v-128h85.333v-384h149.333v384h106.667z" />
<glyph unicode="&#xe905;" glyph-name="guarantee" d="M512.217 806.29c-83.905 0-152.477-68.572-152.477-152.477 0-83.959 68.572-152.53 152.477-152.53 83.959 0 152.53 68.572 152.53 152.53 0 83.905-68.572 152.477-152.53 152.477zM824.408 676.331l-31.739 38.87c-10.24 12.277-17.424 35.814-17.424 52.219l2.091 50.129c1.019 16.406-11.259 32.758-26.646 36.832l-49.11 13.35c-15.333 4.075-35.814 18.389-45.035 32.704l-27.665 41.979c-9.168 13.296-28.63 20.48-43.963 14.315l-45.035-17.371c-15.387-6.166-39.942-6.166-55.275 0l-47.126 18.443c-15.333 6.112-34.795-1.072-43.963-14.368l-27.665-41.926c-9.222-13.35-28.63-28.683-45.035-32.758l-49.11-13.35c-15.387-4.075-27.665-20.427-26.646-36.832l2.091-50.129c1.019-16.406-7.184-39.942-17.424-52.219l-31.739-38.87c-10.24-12.277-10.24-33.776 0-46.054l31.739-38.923c10.24-12.277 17.424-35.814 17.424-52.219l-1.072-51.147c-1.019-16.406 11.259-32.758 26.646-36.832l49.11-13.35c15.387-4.075 35.814-18.389 45.035-32.704l27.665-41.979c9.168-13.296 28.63-20.48 44.017-14.315l47.073 18.389c15.333 6.166 39.888 6.166 55.275 0l47.073-18.389c15.333-6.166 34.795 1.019 44.017 14.315l27.611 41.979c9.222 13.296 28.683 28.63 45.035 32.704l49.163 13.35c15.333 4.075 27.611 20.427 26.592 36.832l-2.037 50.129c-1.019 16.406 7.131 39.942 17.371 52.219l31.739 38.87c7.184 13.35 7.184 33.776-3.056 46.108zM512.217 453.192c-110.551 0-200.621 90.071-200.621 200.621 0 110.497 90.071 200.568 200.621 200.568s200.621-90.071 200.621-200.568c0-110.551-90.071-200.621-200.621-200.621zM673.915 376.418l-29.648-45.035-4.128-278.414c6.166 0 12.331-2.037 18.443-5.093l66.534-32.758c18.443-9.222 29.702 0 25.574 19.462l-76.774 341.839zM542.938 334.439c-17.424 6.166-45.035 6.166-61.441 0l-52.166-20.48c-17.424-6.112-38.923 1.019-49.163 15.387l-10.24 16.352-59.35-386.874 102.348 59.35c10.24 6.166 23.536 9.222 36.886 9.222 18.389 0 36.832-6.166 50.129-17.424l90.071-74.683 6.166 377.653c0 0-1.072 0-1.072 0l-52.166 21.499z" />
<glyph unicode="&#xe906;" glyph-name="heart" d="M699.733 789.333c-76.8 0-145.067-38.4-187.733-98.133-42.667 59.733-110.933 98.133-187.733 98.133-132.267 0-238.933-106.667-238.933-238.933 0-187.733 426.667-529.067 426.667-529.067s426.667 341.333 426.667 529.067c0 132.267-106.667 238.933-238.933 238.933z" />
<glyph unicode="&#xe907;" glyph-name="instagram" d="M661.333 832h-298.667c-129.603 0-234.667-105.064-234.667-234.667v0-298.667c0-129.603 105.064-234.667 234.667-234.667v0h298.667c129.603 0 234.667 105.064 234.667 234.667v0 298.667c0 129.603-105.064 234.667-234.667 234.667v0zM832 298.667c-0.11-94.212-76.454-170.557-170.656-170.667h-298.677c-94.212 0.11-170.557 76.454-170.667 170.656v298.678c0.109 94.213 76.454 170.557 170.656 170.667h298.677c94.213-0.109 170.557-76.454 170.667-170.656v-0.011zM512 640c-106.039 0-192-85.961-192-192s85.961-192 192-192c106.039 0 192 85.961 192 192v0c0 106.039-85.961 192-192 192v0zM512 320c-70.692 0-128 57.308-128 128s57.308 128 128 128c70.692 0 128-57.308 128-128v0c-0.082-70.659-57.341-127.917-127.992-128h-0.008zM755.2 648.534c0-23.564-19.103-42.667-42.667-42.667s-42.667 19.103-42.667 42.667c0 23.564 19.103 42.667 42.667 42.667s42.667-19.103 42.667-42.667z" />
<glyph unicode="&#xe908;" glyph-name="libra" d="M1023.794 497.404c-0.054 1.138-0.108 2.33-0.379 3.468-0.163 1.192-0.542 2.33-0.867 3.413-0.217 0.704-0.271 1.463-0.542 2.113l-127.053 340.47 5.039 0.596c17.554 2.167 29.962 18.205 27.795 35.705-2.221 17.554-18.313 30.016-35.759 27.795l-41.015-5.147c-0.054 0-0.108 0.054-0.163 0.054-2.438-0.054-5.526-0.379-7.856-0.975l-300.431-37.385v11.703c0 17.717-16.417 32.021-34.134 32.021-17.663 0-34.134-14.358-34.134-32.021v-19.722l-306.065-38.631c-0.704-0.054 0.054-0.108-0.596-0.217l-44.265-5.635c-17.609-2.221-29.691-18.205-27.469-35.759 1.95-15.767 15.333-27.361 30.666-27.903l-124.669-341.12c-0.271-0.704-0.325-1.409-0.488-2.113-0.325-1.084-0.65-2.167-0.813-3.305-0.271-1.192-0.325-2.33-0.379-3.468-0.054-0.704-0.217-1.409-0.217-2.113 0-0.433 0-0.759 0-1.084 0.054-0.325 0.054-0.65 0.108-0.975 1.192-96.17 79.537-173.973 175.87-173.973 96.441 0 174.895 77.966 175.924 174.082 0 0.325 0.054 0.704 0.054 1.029s0 0.596 0 0.921c0 0.704-0.108 1.409-0.163 2.113-0.108 1.192-0.108 2.384-0.379 3.522-0.163 1.192-0.488 2.221-0.867 3.305-0.163 0.759-0.271 1.517-0.542 2.221l-134.042 351.902 258.332 32.671v-587.533c0-7.639-3.684-160.212-253.131-160.212-17.717 0-30.558-12.299-30.558-29.962 0-17.717 15.712-29.962 33.375-29.962h576.047c0.054 0 0.054 0 0.163 0 0 0 0.054 0 0.108 0 0 0 0.054 0 0.054 0s0 0 0.108 0c0 0 0 0 0.054 0v0h0.054c17.392 0 31.479 10.944 31.479 28.445 0 17.663-14.249 28.445-31.966 28.445h-0.054c-2.546 0-257.466 5.418-257.466 163.083v595.66l258.062 32.237-126.782-328.388c-0.325-0.759-0.271-1.517-0.433-2.276-0.379-1.138-0.65-2.221-0.867-3.413-0.271-1.246-0.271-2.438-0.325-3.684-0.054-0.704-0.217-1.409-0.217-2.167 0-0.217 0.054-0.433 0.054-0.596 0-0.325 0-0.65 0-0.921 0.867-96.333 79.429-174.515 175.978-174.515 96.441 0 174.84 77.966 175.924 174.136 0 0.325 0 0.65 0 0.975s0.054 0.596 0.054 0.921c0 0.759-0.163 1.463-0.217 2.167zM77.803 431.033l97.146 265.538 98.988-265.538h-196.133zM750.725 522.057l99.367 256.599 95.845-256.599h-195.212z" />
<glyph unicode="&#xe909;" glyph-name="mail" d="M157.697 820.056c-87.109 0-157.697-70.588-157.697-157.697v-430.083c0-87.109 70.588-157.697 157.697-157.697 237.092 0 474.183 0 711.275 0 87.109 0 157.697 70.588 157.697 157.697v430.083c0 87.109-70.588 157.697-157.697 157.697h-711.275zM122.881 152.13h34.816c-39.595 0-71.68 32.086-71.68 71.68v421.754l346.183-223.165c24.44-14.746 52.429-22.528 80.965-22.528h0.341c28.536 0 56.525 7.782 80.965 22.528l346.183 223.165v-421.754c0-39.595-32.086-71.68-71.68-71.68h34.816c-263.238 3.004-517.67 3.004-780.908 0zM513.369 485.82v0c-12.561 0-24.849 3.277-35.704 9.489l-354.784 229.378c10.581 6.076 22.596 9.353 34.816 9.353 237.092 0 474.183 0 711.275 0 12.22 0 24.235-3.277 34.816-9.353l-354.784-229.378c-10.854-6.212-23.143-9.489-35.635-9.489z" />
<glyph unicode="&#xe90a;" glyph-name="map" d="M738.24 866.24c-124.992 124.992-327.488 124.992-452.512 0-124.992-124.928-124.992-327.616 0-452.512 0 0 226.112-221.76 226.112-477.76 0 256 226.368 477.76 226.368 477.76 125.056 124.896 125.056 327.584 0.032 452.512zM511.872 511.808c-70.624 0-127.872 57.248-127.872 128s57.248 128 127.872 128c70.88 0 128.128-57.248 128.128-128s-57.248-128-128.128-128z" />
<glyph unicode="&#xe90b;" glyph-name="map_header" d="M456.862 614.541c0-79.895 135.033-221.679 140.659-227.305l10.127-10.127 10.127 10.127c5.626 5.626 140.659 147.411 140.659 227.305 0 83.27-67.516 150.787-150.787 150.787s-150.787-67.516-150.787-150.787zM657.16 617.916c0-27.007-22.505-49.512-49.512-49.512s-49.512 22.505-49.512 49.512c0 27.007 22.505 49.512 49.512 49.512s49.512-22.505 49.512-49.512zM734.804 499.763c0 0 0 0 0 0-10.127 0-19.13-9.002-19.13-19.13s9.002-19.13 19.13-19.13h7.877l20.255-106.901-54.013-39.385-345.459 146.286h105.776c10.127 0 19.13 9.002 19.13 19.13s-9.002 19.13-19.13 19.13h-235.182l-45.011-300.448h553.635c41.635 0 75.393 33.758 75.393 75.393l-42.76 225.055h-40.51zM672.914 289.336l-73.143-52.888h-308.325l135.033 156.413 246.435-103.525zM266.69 461.503v0l123.78-51.763-148.536-173.292h-9.002l33.758 225.055zM742.681 236.448h-77.644l106.901 77.644 7.877-41.635c-1.125-20.255-18.004-36.009-37.134-36.009z" />
<glyph unicode="&#xe90c;" glyph-name="mechanic" d="M315.82 437.574c-57.199 43.699-49.373 138.596-44.155 173.685l54.786-58.96c6.653-7.044 15.262-11.414 24.849-11.414h318.412c7.827 0 15.458 2.805 21.458 8.022l12.653 10.827c2.413 2.022 4.631 3.979 7.044 6 12.001 10.24 24.654 20.675 35.676 32.089 2.609 2.805 5.218 5.609 7.827 8.414 5.022-38.481 9.653-126.791-44.938-168.468-15.849-72.070-56.547-125.617-106.116-155.684-29.285-17.871-62.026-27.719-94.506-28.306-32.676-0.783-65.417 7.631-94.702 26.284-44.742 28.306-81.462 79.831-98.289 157.902v-0.391zM404.065 250.779c-86.027-15.262-173.49-50.742-236.885-112.573-56.808-55.373-83.288-126.4-88.897-204.796 0-0.261 0-0.457 0-0.652h868.688c0 0.196 0 0.391 0 0.652-5.609 78.396-32.089 149.423-88.832 204.796-63.2 61.83-150.923 97.311-236.95 112.573 0 0-0.196-0.196-0.196-0.196l-108.333-108.333-108.333 108.333c0 0-0.261 0.196-0.261 0.196v0zM512.659 959.739c-0.652 0-1.435 0-2.022 0-0.196 0-0.391 0-0.587 0v0h-0.457c-7.37 0.261-14.805 0.261-21.849 0v-78.592h-33.067v75.005c-170.946-29.285-195.6-224.689-198.209-252.147l-12.457-25.11c-3.196-6.392-1.826-13.827 2.609-18.653l6-7.631c25.306-32.48 39.524-48.329 70.635-74.809 6.196-5.218 13.24-11.283 19.632-16.697v0c3.261-2.609 7.044-3.979 10.827-3.979v0h318.608c3.848 0 7.631 1.174 10.827 3.979v0c6.261 5.413 13.436 11.479 19.697 16.697 31.046 26.48 45.329 42.329 70.57 74.809l6.066 7.631c4.566 4.826 5.805 12.262 2.609 18.653v0l-12.457 25.11c-2.609 27.458-27.263 222.667-198.209 252.147v-75.005h-33.133v78.592c-6.979 0.261-14.218 0.457-21.849 0h-0.391c-0.196 0-0.391 0-0.587 0-0.652 0-1.435 0-2.022 0h-0.783z" />
<glyph unicode="&#xe90d;" glyph-name="no" d="M512 917.333c-259.2 0-469.333-210.133-469.333-469.333 0-259.211 210.133-469.333 469.333-469.333 259.211 0 469.333 210.123 469.333 469.333 0 259.2-210.123 469.333-469.333 469.333zM128 448c0 90.667 31.499 173.931 84.043 239.616l539.584-539.573c-65.685-52.544-148.96-84.043-239.627-84.043-212.075 0-384 171.925-384 384zM811.957 208.373l-539.573 539.584c65.685 52.544 148.949 84.043 239.616 84.043 212.075 0 384-171.925 384-384 0-90.667-31.499-173.941-84.043-239.627z" />
<glyph unicode="&#xe90f;" glyph-name="percentage" d="M183.488-53.040c20.048-17.728 52.8-13.488 73.12 9.536l712 805.072c20.336 22.992 20.576 56.016 0.512 73.76l-128.608 113.744c-20.048 17.728-52.8 13.456-73.136-9.536l-711.984-805.088c-20.336-23.024-20.576-56.016-0.512-73.744l128.608-113.744zM357.344 781.328c0-98.678-79.994-178.672-178.672-178.672s-178.672 79.994-178.672 178.672c0 98.678 79.994 178.672 178.672 178.672s178.672-79.994 178.672-178.672zM1024 114.672c0-98.678-79.994-178.672-178.672-178.672s-178.672 79.994-178.672 178.672c0 98.678 79.994 178.672 178.672 178.672s178.672-79.994 178.672-178.672z" />
<glyph unicode="&#xe910;" glyph-name="phone" d="M568.889 618.667h-113.778v-113.778h113.778v113.778zM796.444 618.667h-113.778v-113.778h113.778v113.778zM967.111 248.889c-68.267 0-136.533 11.378-204.8 34.133-17.067 5.689-39.822 0-56.889-11.378l-125.156-125.156c-159.289 79.644-290.133 216.178-375.467 375.467l125.156 125.156c17.067 17.067 22.756 39.822 11.378 56.889-17.067 62.578-28.444 130.844-28.444 199.111 0 34.133-22.756 56.889-56.889 56.889h-199.111c-34.133 0-56.889-22.756-56.889-56.889 0-534.756 432.356-967.111 967.111-967.111 34.133 0 56.889 22.756 56.889 56.889v199.111c0 34.133-22.756 56.889-56.889 56.889v0zM910.222 618.667v-113.778h113.778v113.778h-113.778z" />
<glyph unicode="&#xe911;" glyph-name="phone_contact" d="M354.802 386.283c-24.189 23.026-40.13 50.923-43.174 77.547-2.435 25.849 5.369 52.805 41.901 85.518 12.067 10.849 27.842 24.189 35.702 47.547 7.805 23.358 2.546 50.314-11.845 77.049-40.13 49.706-76.828 105.998-113.027 147.954-24.797 24.797-60.72 32.436-87.289 24.133-25.13-7.749-44.502-24.908-60.665-40.573-90.887-90.942-129.024-184.486-112.751-278.694 16.329-94.208 81.145-182.826 178.508-280.244 38.525-38.525 80.924-80.868 115.075-115.075 97.418-97.363 186.036-162.179 280.244-178.508 94.208-16.273 187.752 21.864 278.694 112.751 15.664 16.163 32.823 35.536 40.573 60.665 8.303 26.569 0.72 62.492-24.133 87.289-41.956 36.2-98.249 72.898-147.954 113.027-26.735 14.391-53.691 19.65-77.049 11.845-23.358-7.86-36.698-23.635-47.547-35.702-32.713-36.532-59.669-44.336-85.518-41.901-26.624 3.044-54.521 18.986-77.547 43.174l-82.197 82.197zM214.265 773.355l102.013-133.341c7.86-15.222 7.14-19.594 6.642-21.034-0.498-1.494-4.705-7.417-15.886-17.491-48.654-43.562-69.355-96.201-64.761-144.356 4.594-47.879 30.831-88.673 63.211-120.168 30-30.056 52.971-53.027 82.197-82.197 31.495-32.381 72.289-58.617 120.168-63.211 48.156-4.594 100.795 16.107 144.356 64.761 10.074 11.181 15.997 15.388 17.491 15.886 1.439 0.498 5.812 1.218 21.034-6.642l133.341-102.013c9.52-9.631 8.192-9.853 6.144-16.439-2.103-6.753-11.347-19.705-23.358-32.104-53.248-53.414-141.478-113.47-217.309-93.488-69.798 12.122-149.836 66.145-242.992 159.246-38.525 38.525-80.868 80.868-115.075 115.075-93.101 93.156-147.124 173.194-159.246 242.992-19.982 75.831 40.074 164.061 93.488 217.309 12.399 12.011 25.351 21.255 32.104 23.358 5.48 1.771 10.074 1.55 16.439-6.144v0zM439.877 912.232c0.941-18.266 18.432-33.986 36.698-33.045 263.638 0 476.575-212.937 476.575-476.575-0.277-18.432 16.439-35.37 34.871-35.37s35.148 16.938 34.871 35.37c0 301.333-244.985 546.318-546.318 546.318-20.093-0.166-36.975-18.1-36.698-36.698zM439.877 772.746c0.941-18.266 18.432-33.986 36.698-33.045 186.589 0 337.090-150.5 337.090-337.090-0.277-18.432 16.439-35.37 34.871-35.37s35.148 16.938 34.871 35.37c0 224.284-182.549 406.832-406.832 406.832-20.591 0.111-36.975-18.487-36.698-36.698z" />
<glyph unicode="&#xe912;" glyph-name="prevention" d="M149.936 960h725.656c36.643 0 66.92-30.111 66.92-66.809v-889.164c0-36.753-30.277-66.92-66.92-66.92h-725.656c-36.643 0-66.92 30.166-66.92 66.92v889.164c0 36.698 30.277 66.809 66.92 66.809zM149.936 4.027h725.656v889.164h-725.656v-889.164zM502.856 519.071c-0.111-0.055-0.221 0-0.277 0-12.842 0-23.248-10.461-23.248-23.248 0-12.842 10.406-23.248 23.248-23.248 0.055 0 0.166 0 0.277 0h287.716c0.111 0 0.221 0 0.332 0 12.842 0 23.248 10.406 23.248 23.248 0 12.786-10.406 23.248-23.248 23.248-0.111 0-0.221-0.055-0.332-0.055l-287.716 0.055zM502.856 268.717c-0.111-0.055-0.221 0-0.277 0-12.842 0-23.248-10.461-23.248-23.248 0-12.842 10.406-23.248 23.248-23.248 0.055 0 0.166 0 0.277 0h287.716c0.111 0 0.221 0 0.332 0 12.842 0 23.248 10.406 23.248 23.248 0 12.786-10.406 23.248-23.248 23.248-0.111 0-0.221-0.055-0.332-0.055l-287.716 0.055zM502.856 674.885c-0.111 0-0.221 0-0.277 0-12.842 0-23.248-10.406-23.248-23.248 0-12.786 10.406-23.248 23.248-23.248 0.055 0 0.166 0.055 0.277 0.055h128.415c0.111 0 0.221-0.055 0.277-0.055 12.842 0 23.248 10.461 23.248 23.248 0 12.842-10.406 23.248-23.248 23.248-0.055 0-0.166 0-0.277 0h-128.415zM502.856 424.531c-0.111 0-0.221 0-0.277 0-12.842 0-23.248-10.406-23.248-23.248 0-12.786 10.406-23.248 23.248-23.248 0.055 0 0.166 0 0.277 0h128.415c0.111 0 0.166 0 0.277 0 12.842 0 23.248 10.461 23.248 23.248 0 12.842-10.406 23.248-23.248 23.248-0.111 0-0.166 0-0.277 0h-128.415zM502.856 174.177c-0.111 0-0.221 0-0.277 0-12.842 0-23.248-10.406-23.248-23.248 0-12.786 10.406-23.248 23.248-23.248 0.055 0 0.166 0.055 0.277 0.055h128.415c0.111 0 0.166-0.055 0.277-0.055 12.842 0 23.248 10.461 23.248 23.248 0 12.842-10.406 23.248-23.248 23.248-0.111 0-0.166 0-0.277 0h-128.415zM394.81 552.337c-7.638-0.221-14.723-4.207-18.875-10.683l-87.455-131.459-34.262 51.255c-4.262 6.642-11.624 10.683-19.539 10.683-12.786 0-23.248-10.461-23.248-23.248 0-4.76 1.494-9.354 4.151-13.229l53.635-80.259c4.262-6.476 11.568-10.351 19.318-10.351s15.056 3.875 19.318 10.351l106.773 160.464c2.657 3.875 4.096 8.469 4.096 13.174 0 12.842-10.406 23.248-23.248 23.248-0.221 0-0.443 0-0.664 0v0.055zM502.856 769.425c-0.111-0.055-0.221 0-0.277 0-12.842 0-23.248-10.461-23.248-23.248 0-12.842 10.406-23.248 23.248-23.248 0.055 0 0.166 0 0.277 0h287.772c0.055 0 0.166 0 0.277 0 12.842 0 23.248 10.406 23.248 23.248 0 12.786-10.406 23.248-23.248 23.248-0.111 0-0.221-0.055-0.332-0.055l-287.716 0.055zM234.9 301.706c-12.842 0-23.248-10.406-23.248-23.248v-160.408c0-12.842 10.406-23.248 23.248-23.248h160.408c12.786 0 23.192 10.406 23.192 23.248v160.408c0 12.842-10.406 23.248-23.192 23.248h-160.408zM258.535 255.211h113.913v-113.913h-113.913v113.913zM234.9 802.415c-12.842 0-23.248-10.406-23.248-23.248v-160.519c0-12.842 10.406-23.248 23.248-23.248h160.408c12.786 0 23.192 10.406 23.192 23.248v160.519c0 12.842-10.406 23.248-23.192 23.248h-160.408zM255.768 754.259h113.913v-114.024h-113.913v114.024z" />
<glyph unicode="&#xe913;" glyph-name="question" d="M621.714 242.286v-137.143q0-9.143-6.857-16t-16-6.857h-137.143q-9.143 0-16 6.857t-6.857 16v137.143q0 9.143 6.857 16t16 6.857h137.143q9.143 0 16-6.857t6.857-16zM802.286 585.143q0-30.857-8.857-57.714t-20-43.714-31.429-34-32.857-24.857-34.857-20.286q-23.429-13.143-39.143-37.143t-15.714-38.286q0-9.714-6.857-18.571t-16-8.857h-137.143q-8.571 0-14.571 10.571t-6 21.429v25.714q0 47.429 37.143 89.429t81.714 62q33.714 15.429 48 32t14.286 43.429q0 24-26.571 42.286t-61.429 18.286q-37.143 0-61.714-16.571-20-14.286-61.143-65.714-7.429-9.143-17.714-9.143-6.857 0-14.286 4.571l-93.714 71.429q-7.429 5.714-8.857 14.286t3.143 16q91.429 152 265.143 152 45.714 0 92-17.714t83.429-47.429 60.571-72.857 23.429-90.571z" />
<glyph unicode="&#xe914;" glyph-name="scan" d="M128 256v64h384v-64h-384zM128 512v64h512v-64h-512zM128 384v64h512v-64h-512zM589.248 960h-589.248v-1024h768v845.312l-178.752 178.688zM575.936 882.784l114.816-114.784h-114.816v114.784zM64 0v896.064h448v-192.032h192v-704.032h-640z" />
<glyph unicode="&#xe915;" glyph-name="shield" d="M518.606-57.394v0c-488.877 105.703-429.419 825.806-429.419 825.806 257.652-29.729 406.297 132.129 426.116 155.252v3.303c0 0 0 0 0 0s0 0 0 0v-3.303c19.819-23.123 171.768-184.981 426.116-155.252 3.303 0 66.065-720.103-422.813-825.806zM855.535 712.258c-204.8-23.123-323.716 99.097-336.929 118.916v3.303c0 0 0 0 0 0s0 0 0 0v-3.303c-19.819-19.819-138.735-142.039-340.232-118.916 0 0-46.245-601.187 340.232-683.768v0c386.477 82.581 336.929 683.768 336.929 683.768zM518.606 91.252v0c-9.91 3.303-16.516 3.303-23.123 6.606l290.684 320.413c-33.032-135.432-102.4-290.684-267.561-327.019zM369.961 170.529l429.419 465.755c0-23.123 0-59.458-3.303-102.4l-366.658-406.297c-23.123 9.91-42.942 26.426-59.458 42.942zM234.529 659.406c168.465-19.819 267.561 82.581 280.774 99.097v3.303c0 0 0 0 0 0s0 0 0 0v-3.303c9.91-13.213 85.884-92.49 214.71-102.4l-402.994-432.723c-112.31 171.768-92.49 436.026-92.49 436.026z" />
<glyph unicode="&#xe916;" glyph-name="siren" d="M870.549 140.785h-102.394v307.249c0 141.408-114.711 256.118-256.185 256.118-141.408 0-256.118-114.711-256.118-256.118v-307.249h-102.394v-102.394h-102.128v-102.394h921.613v102.394h-102.394v102.394zM0 499.097h153.724v-102.394h-153.724v102.394zM870.549 499.097h153.724v-102.394h-153.724v102.394zM837.7 846.302l72.403-72.403-108.698-108.698-72.403 72.403 108.698 108.698zM460.906 960.003h102.394v-153.724h-102.394v153.724zM186.115 846.122l108.51-108.51-72.403-72.403-108.51 108.51 72.403 72.403z" />
<glyph unicode="&#xe917;" glyph-name="support" d="M272.454 442.88c1.044 41.755 13.57 82.467 36.536 117.959l163.89-176.416 98.125 89.774-163.89 174.329c34.448 16.702 73.072 25.053 111.696 22.965 131.529-4.176 233.83-114.827 229.654-246.357-1.044-26.097-6.263-52.194-15.658-77.247l-1.044-3.132 224.435-241.137-136.749-126.31-219.216 235.918-3.132-1.044c-30.273-11.483-61.589-16.702-94.993-15.658-131.529 4.176-233.83 114.827-229.654 246.357zM26.097 525.347h81.423c12.527 51.15 30.273 93.95 59.501 136.749l-67.852 67.852c-4.176 4.176-8.351 12.527-8.351 16.702 0 8.351 4.176 12.527 8.351 16.702l89.774 89.774c8.351 8.351 26.097 8.351 38.624 0l68.896-68.896c38.624 26.097 81.423 42.799 124.222 55.326v91.862c0 12.527 12.527 26.097 26.097 26.097h126.31c12.527 0 26.097-12.527 26.097-26.097v-85.598c46.975-8.351 89.774-30.273 128.398-51.15l73.072 73.072c8.351 8.351 26.097 8.351 38.624 0l89.774-89.774c4.176-4.176 8.351-12.527 8.351-16.702s-4.176-12.527-8.351-16.702l-73.072-73.072c26.097-42.799 46.975-89.774 59.501-140.924h81.423c12.527 0 26.097-12.527 26.097-26.097v-129.442c0-12.527-12.527-26.097-26.097-26.097h-81.423c-5.219-30.273-15.658-58.457-28.185-84.555l-73.072 73.072c10.439 32.36 16.702 65.765 16.702 102.301 0 177.46-144.056 321.516-321.516 321.516-178.504 0-322.56-144.056-322.56-321.516s144.056-321.516 321.516-321.516c31.317 0 61.589 4.176 89.774 12.527l33.404-83.511c-11.483-3.132-22.965-6.263-34.448-9.395v-73.072c0-12.527-12.527-26.097-26.097-26.097h-126.31c-12.527 0-26.097 12.527-26.097 26.097v77.247c-51.15 12.527-93.95 30.273-136.749 59.501l-55.326-55.326c-4.176-4.176-12.527-8.351-16.702-8.351s-12.527 4.176-16.702 8.351l-89.774 89.774c-4.176 4.176-8.351 12.527-8.351 16.702 0 8.351 4.176 12.527 8.351 16.702l55.326 55.326c-26.097 38.624-42.799 81.423-51.15 128.398h-81.423c-12.527 0-26.097 12.527-26.097 26.097v128.398c0 4.176 9.395 17.746 26.097 17.746z" />
<glyph unicode="&#xe918;" glyph-name="thief" d="M638.103 938.286c-40.036 14.312-82.415 21.714-124.919 21.714-94.506 0-186.977-35.532-256.87-99.195-78.652-71.62-115.049-170.321-123.562-274.759-8.821-108.016 2.036-223.311 15.484-330.464 5.058-40.406 6.231-81.243 3.948-121.834-1.912-35.409-12.276-69.954-16.532-105.178-1.357-10.919-2.097-22.886 4.133-31.955 18.63-27.205 66.191-24.058 94.691-30.104 83.279-17.581 169.581-29.487 255.389-31.831 86.61-2.344 171.617 7.958 257.178 20.419 1.727 0.247 3.516 0.494 5.243 0.74 30.474 4.442 60.886 9.438 91.299 14.127 3.516 0.555 7.032 1.11 10.549 1.666 22.948 3.578 41.886 16.347 39.727 41.393-2.961 34.792-16.779 67.98-19.864 103.081-4.195 47.5-3.64 95.432 2.282 142.747 9.562 76.123 17.458 152.617 18.63 229.357 1.049 69.646 2.406 151.506-22.763 216.834-41.331 107.091-125.165 194.318-234.045 233.243zM336.263 402.523c-66.5 15.299-107.954 81.614-92.656 148.113s256.068 10.981 240.769-55.519c-15.36-66.438-81.675-107.954-148.113-92.594zM558.895 93.589h-91.484c-46.575 0-84.698 38.123-84.698 84.698 0 46.636 38.123 84.698 84.698 84.698h91.484c46.575 0 84.698-38.062 84.698-84.698 0-46.575-38.123-84.698-84.698-84.698zM690.106 402.523c-66.5-15.36-132.815 26.156-148.113 92.594-15.36 66.5 225.409 122.019 240.769 55.519 15.299-66.5-26.156-132.815-92.656-148.113z" />
<glyph unicode="&#xe919;" glyph-name="time" d="M512 960c-281.6 0-512-230.4-512-512s230.4-512 512-512c281.6 0 512 230.4 512 512s-230.4 512-512 512v0zM512 38.4c-225.28 0-409.6 184.32-409.6 409.6s184.32 409.6 409.6 409.6c225.28 0 409.6-184.32 409.6-409.6s-184.32-409.6-409.6-409.6zM537.6 704h-76.8v-307.2l266.24-163.84 40.96 66.56-230.4 138.24v266.24z" />
<glyph unicode="&#xe91a;" glyph-name="user" d="M663.983 578.425c0-83.938-68.045-151.983-151.983-151.983s-151.983 68.045-151.983 151.983c0 83.938 68.045 151.983 151.983 151.983s151.983-68.045 151.983-151.983zM512 960c-282.408 0-512-229.592-512-512s229.592-512 512-512c282.408 0 512 229.592 512 512s-229.592 512-512 512zM771.773 107.385l-38.804 171.385c-11.857 53.895-53.895 94.855-104.556 108.867-7.545 2.156-15.091 1.078-21.558-2.156-28.025-14.013-60.362-21.558-93.777-21.558s-65.752 7.545-93.777 21.558c-6.467 3.234-14.013 4.312-21.558 2.156-51.739-14.013-92.699-54.973-104.556-108.867l-38.804-171.385c-102.4 78.686-169.229 202.644-169.229 340.615 0 236.059 191.865 429.002 429.002 429.002s429.002-191.865 429.002-429.002c-2.156-139.048-68.985-263.006-171.385-340.615z" />
<glyph unicode="&#xe91b;" glyph-name="vk" d="M919.354 661.333h-140.394c0 0 0 0 0 0-12.015 0-22.469-6.686-27.843-16.541l-0.083-0.166s-55.994-103.122-73.981-137.856c-48.387-93.437-79.72-64.104-79.72-20.739v149.524c0 26.019-21.092 47.111-47.111 47.111v0h-105.557c-1.877 0.148-4.063 0.233-6.27 0.233-28.039 0-52.89-13.647-68.274-34.661l-0.166-0.238s53.6 8.666 53.6-63.555c0-17.909 0.922-69.428 1.763-112.64 0.006-0.231 0.010-0.502 0.010-0.774 0-17.188-13.934-31.122-31.122-31.122-9.206 0-17.478 3.997-23.176 10.35l-0.026 0.029c-40.7 55.964-76.482 119.811-104.365 187.736l-2.225 6.124c-4.801 10.229-15.015 17.186-26.854 17.186-0.015 0-0.030 0-0.045 0h0.002c-30.447 0-91.374 0-127.557 0-0.044 0-0.096 0.001-0.147 0.001-11.971 0-21.675-9.704-21.675-21.675 0-2.709 0.497-5.302 1.405-7.693l-0.050 0.149c38.732-106.243 205.579-440.115 396.018-440.115h80.156c17.489 0 31.666 14.178 31.666 31.667v0 48.401c0 17.185 13.932 31.117 31.117 31.117 8.252 0 15.753-3.212 21.323-8.454l-0.016 0.015 95.941-90.142c8.293-7.806 19.495-12.602 31.817-12.603h125.987c60.764 0 60.764 42.165 27.634 74.792-23.315 22.962-107.448 111.643-107.448 111.643-7.543 7.807-12.191 18.452-12.191 30.184 0 9.924 3.326 19.071 8.924 26.387l-0.077-0.104c27.194 35.787 71.675 94.368 90.539 119.464 25.785 34.301 72.451 106.968 8.472 106.968z" />
<glyph unicode="&#xe91c;" glyph-name="youtube" d="M930.445 626.987c-5.325 57.707-51.004 103.238-108.306 108.301l-0.454 0.032c-66.886 5.55-166.023 11.347-288.346 11.347-147.307 0-258.502-6.018-330.391-11.662-58.061-4.804-104.080-50.494-109.366-107.977l-0.035-0.468c-4.401-46.302-8.213-107.453-8.213-180.365 0-71.096 3.781-131.167 8.161-176.893 5.374-57.893 51.372-103.517 108.96-108.273l0.431-0.029c71.886-5.643 183.102-11.666 330.453-11.666 122.323 0 221.461 5.797 288.346 11.349 57.757 5.092 103.436 50.624 108.725 107.861l0.035 0.47c4.404 46.060 8.221 106.799 8.221 178.987s-3.818 132.927-8.221 178.987zM417.107 322.612v250.776l247.384-125.388z" />
</font>
</defs>
</svg>
